# xmcd
#
# Track frame offsets: 
#        151
#        29264
#        42166
#        58817
#        76219
#        93622
#        111398
#        120926
#        136827
#        143730
#        158882
#        172534
#        195186
#        208537
#
# Disc length: 2975 seconds
#
# Revision: 0
# Processed by: cddbd v1.5.1PL0 Copyright (c) Steve Scherf et al.
# Submitted via: ExactAudioCopy v0.95b2
#
DISCID=ad0b9d0e
DTITLE=Donovan - The Country Album
DYEAR=1900
DGENRE=
TTITLE0=The Most Of What Is Least
TTITLE1=The Loving Of You
TTITLE2=Love Potion Nº 9
TTITLE3=Still Waters Run Deep
TTITLE4=There Are No Roads
TTITLE5=You're The One
TTITLE6=Travellin' Light
TTITLE7=Brown Skin Girl
TTITLE8=Singin' The Blues
TTITLE9=Weather The Storm (Live)
TTITLE10=Earthquake Blues
TTITLE11=The Most Of What Is Least #2
TTITLE12=Earth Sign Mama
TTITLE13=A Man In Love
EXTD=
EXTT0=
EXTT1=
EXTT2=
EXTT3=
EXTT4=
EXTT5=
EXTT6=
EXTT7=
EXTT8=
EXTT9=
EXTT10=
EXTT11=
EXTT12=
EXTT13=
PLAYORDER=
